<?xml version="1.0" encoding="UTF-8"?>
<svg xmlns="http://www.w3.org/2000/svg" xmlns:xlink="http://www.w3.org/1999/xlink" width="40px" height="40px" viewBox="-2 -2 44 44" version="1.1">
	<g id="surface1">
		<path style="stroke:none;fill-rule:nonzero;fill:rgb(98.431373%,75.294119%,17.647059%);fill-opacity:1;" d="M 8.332031 5 L 11.667969 5 L 11.667969 8.332031 L 8.332031 8.332031 L 8.332031 16.667969 C 8.332031 18.507812 6.839844 20 5 20 C 6.839844 20 8.332031 21.492188 8.332031 23.332031 L 8.332031 31.667969 L 11.667969 31.667969 L 11.667969 35 L 8.332031 35 C 6.550781 34.550781 5 33.5 5 31.667969 L 5 25 C 5 23.160156 3.507812 21.667969 1.667969 21.667969 L 0 21.667969 L 0 18.332031 L 1.667969 18.332031 C 3.507812 18.332031 5 16.839844 5 15 L 5 8.332031 C 5 6.492188 6.492188 5 8.332031 5 M 31.667969 5 C 33.507812 5 35 6.492188 35 8.332031 L 35 15 C 35 16.839844 36.492188 18.332031 38.332031 18.332031 L 40 18.332031 L 40 21.667969 L 38.332031 21.667969 C 36.492188 21.667969 35 23.160156 35 25 L 35 31.667969 C 35 33.507812 33.507812 35 31.667969 35 L 28.332031 35 L 28.332031 31.667969 L 31.667969 31.667969 L 31.667969 23.332031 C 31.667969 21.492188 33.160156 20 35 20 C 33.160156 20 31.667969 18.507812 31.667969 16.667969 L 31.667969 8.332031 L 28.332031 8.332031 L 28.332031 5 L 31.667969 5 M 20 25 C 20.921875 25 21.667969 25.746094 21.667969 26.667969 C 21.667969 27.585938 20.921875 28.332031 20 28.332031 C 19.078125 28.332031 18.332031 27.585938 18.332031 26.667969 C 18.332031 25.746094 19.078125 25 20 25 M 13.332031 25 C 14.253906 25 15 25.746094 15 26.667969 C 15 27.585938 14.253906 28.332031 13.332031 28.332031 C 12.414062 28.332031 11.667969 27.585938 11.667969 26.667969 C 11.667969 25.746094 12.414062 25 13.332031 25 M 26.667969 25 C 27.585938 25 28.332031 25.746094 28.332031 26.667969 C 28.332031 27.585938 27.585938 28.332031 26.667969 28.332031 C 25.746094 28.332031 25 27.585938 25 26.667969 C 25 25.746094 25.746094 25 26.667969 25 Z M 26.667969 25 "/>
	</g>
</svg>